<svg width="14" height="9" viewBox="0 0 14 9" fill="none" xmlns="http://www.w3.org/2000/svg">
<path fill-rule="evenodd" clip-rule="evenodd" d="M4.58676 0.517332C4.63914 0.572486 4.6807 0.638007 4.70906 0.710142C4.73741 0.782276 4.75201 0.859608 4.75201 0.937707C4.75201 1.01581 4.73741 1.09314 4.70906 1.16527C4.6807 1.23741 4.63914 1.30293 4.58676 1.35808L1.60888 4.50021L4.58676 7.64233C4.63905 7.69754 4.68054 7.76307 4.70884 7.8352C4.73715 7.90733 4.75172 7.98464 4.75172 8.06271C4.75172 8.14078 4.73715 8.21808 4.70884 8.29021C4.68054 8.36234 4.63905 8.42788 4.58676 8.48308C4.53446 8.53829 4.47237 8.58208 4.40404 8.61195C4.33571 8.64183 4.26247 8.65721 4.18851 8.65721C4.11454 8.65721 4.04131 8.64183 3.97297 8.61195C3.90464 8.58208 3.84255 8.53829 3.79026 8.48308L0.415255 4.92058C0.362872 4.86543 0.321311 4.79991 0.292954 4.72777C0.264597 4.65564 0.25 4.57831 0.25 4.50021C0.25 4.42211 0.264597 4.34478 0.292954 4.27264C0.321311 4.20051 0.362872 4.13499 0.415255 4.07983L3.79026 0.517332C3.84251 0.462038 3.90458 0.418168 3.97292 0.388235C4.04126 0.358303 4.11452 0.342896 4.18851 0.342896C4.26249 0.342896 4.33576 0.358303 4.40409 0.388235C4.47243 0.418168 4.5345 0.462038 4.58676 0.517332Z" fill="#F78CB6"/>
<path fill-rule="evenodd" clip-rule="evenodd" d="M0.813477 4.50024C0.813477 4.34277 0.87274 4.19175 0.978229 4.0804C1.08372 3.96905 1.22679 3.90649 1.37598 3.90649H13.1885C13.3377 3.90649 13.4807 3.96905 13.5862 4.0804C13.6917 4.19175 13.751 4.34277 13.751 4.50024C13.751 4.65772 13.6917 4.80874 13.5862 4.92009C13.4807 5.03144 13.3377 5.09399 13.1885 5.09399H1.37598C1.22679 5.09399 1.08372 5.03144 0.978229 4.92009C0.87274 4.80874 0.813477 4.65772 0.813477 4.50024Z" fill="#F78CB6"/>
</svg>
