<svg width="18" height="19" viewBox="0 0 18 19" fill="none" xmlns="http://www.w3.org/2000/svg">
<path fill-rule="evenodd" clip-rule="evenodd" d="M11.4142 5.51733C11.3618 5.57249 11.3203 5.63801 11.2919 5.71014C11.2636 5.78228 11.249 5.85961 11.249 5.93771C11.249 6.01581 11.2636 6.09314 11.2919 6.16527C11.3203 6.23741 11.3618 6.30293 11.4142 6.35808L14.3921 9.50021L11.4142 12.6423C11.3619 12.6975 11.3204 12.7631 11.2921 12.8352C11.2638 12.9073 11.2493 12.9846 11.2493 13.0627C11.2493 13.1408 11.2638 13.2181 11.2921 13.2902C11.3204 13.3623 11.3619 13.4279 11.4142 13.4831C11.4665 13.5383 11.5286 13.5821 11.5969 13.612C11.6653 13.6418 11.7385 13.6572 11.8125 13.6572C11.8864 13.6572 11.9597 13.6418 12.028 13.612C12.0963 13.5821 12.1584 13.5383 12.2107 13.4831L15.5857 9.92058C15.6381 9.86543 15.6797 9.79991 15.708 9.72777C15.7364 9.65564 15.751 9.57831 15.751 9.50021C15.751 9.42211 15.7364 9.34478 15.708 9.27264C15.6797 9.20051 15.6381 9.13499 15.5857 9.07983L12.2107 5.51733C12.1585 5.46204 12.0964 5.41817 12.0281 5.38824C11.9597 5.3583 11.8865 5.3429 11.8125 5.3429C11.7385 5.3429 11.6652 5.3583 11.5969 5.38824C11.5285 5.41817 11.4665 5.46204 11.4142 5.51733Z" fill="#56597A" fill-opacity="0.6"/>
<path fill-rule="evenodd" clip-rule="evenodd" d="M15.1875 9.50024C15.1875 9.34277 15.1282 9.19175 15.0227 9.0804C14.9173 8.96905 14.7742 8.90649 14.625 8.90649H2.8125C2.66332 8.90649 2.52024 8.96905 2.41475 9.0804C2.30926 9.19175 2.25 9.34277 2.25 9.50024C2.25 9.65772 2.30926 9.80874 2.41475 9.92009C2.52024 10.0314 2.66332 10.094 2.8125 10.094H14.625C14.7742 10.094 14.9173 10.0314 15.0227 9.92009C15.1282 9.80874 15.1875 9.65772 15.1875 9.50024Z" fill="#56597A" fill-opacity="0.6"/>
</svg>
