<svg width="14" height="9" viewBox="0 0 14 9" fill="none" xmlns="http://www.w3.org/2000/svg">
<path fill-rule="evenodd" clip-rule="evenodd" d="M9.41422 0.517332C9.36184 0.572486 9.32028 0.638007 9.29192 0.710142C9.26356 0.782276 9.24897 0.859608 9.24897 0.937707C9.24897 1.01581 9.26356 1.09314 9.29192 1.16527C9.32028 1.23741 9.36184 1.30293 9.41422 1.35808L12.3921 4.50021L9.41422 7.64233C9.36192 7.69754 9.32044 7.76307 9.29213 7.8352C9.26383 7.90733 9.24926 7.98464 9.24926 8.06271C9.24926 8.14078 9.26383 8.21808 9.29213 8.29021C9.32044 8.36234 9.36192 8.42788 9.41422 8.48308C9.46652 8.53829 9.52861 8.58208 9.59694 8.61195C9.66527 8.64183 9.73851 8.65721 9.81247 8.65721C9.88643 8.65721 9.95967 8.64183 10.028 8.61195C10.0963 8.58208 10.1584 8.53829 10.2107 8.48308L13.5857 4.92058C13.6381 4.86543 13.6797 4.79991 13.708 4.72777C13.7364 4.65564 13.751 4.57831 13.751 4.50021C13.751 4.42211 13.7364 4.34478 13.708 4.27264C13.6797 4.20051 13.6381 4.13499 13.5857 4.07983L10.2107 0.517332C10.1585 0.462038 10.0964 0.418168 10.0281 0.388235C9.95972 0.358303 9.88646 0.342896 9.81247 0.342896C9.73848 0.342896 9.66522 0.358303 9.59688 0.388235C9.52854 0.418168 9.46647 0.462038 9.41422 0.517332Z" fill="#F78CB6"/>
<path fill-rule="evenodd" clip-rule="evenodd" d="M13.1875 4.50024C13.1875 4.34277 13.1282 4.19175 13.0227 4.0804C12.9173 3.96905 12.7742 3.90649 12.625 3.90649H0.8125C0.663316 3.90649 0.520241 3.96905 0.414752 4.0804C0.309263 4.19175 0.25 4.34277 0.25 4.50024C0.25 4.65772 0.309263 4.80874 0.414752 4.92009C0.520241 5.03144 0.663316 5.09399 0.8125 5.09399H12.625C12.7742 5.09399 12.9173 5.03144 13.0227 4.92009C13.1282 4.80874 13.1875 4.65772 13.1875 4.50024Z" fill="#F78CB6"/>
</svg>
