<svg width="178" height="51" viewBox="0 0 178 51" fill="none" xmlns="http://www.w3.org/2000/svg">
<path d="M168.289 37.333C168.289 34.7652 170.405 32.6505 172.974 32.6505C175.544 32.6505 177.66 34.7652 177.66 37.333C177.66 39.9009 175.544 42.0156 172.974 42.0156C170.405 42.0911 168.289 39.9764 168.289 37.333Z" fill="#87BD1F"/>
<path d="M18.3422 24.9471C18.3422 22.0016 17.7376 19.7359 16.6039 18.3009C15.4703 16.866 13.7319 16.1107 11.3889 16.1107H8.89503V34.3121H10.7845C13.3541 34.3121 15.319 33.5569 16.5283 31.9709C17.7375 30.4604 18.3422 28.1191 18.3422 24.9471ZM27.2603 24.645C27.2603 30.0828 25.8244 34.2366 22.8769 37.1821C19.9294 40.1275 15.8481 41.5625 10.5577 41.5625H0.279053V9.08691H11.2378C16.3015 9.08691 20.2317 10.4464 23.028 13.0898C25.9 15.7331 27.2603 19.5849 27.2603 24.645Z" fill="#060303"/>
<path d="M55.6775 41.5625H63.8399V8.93591H55.6775V41.5625Z" fill="#060303"/>
<path d="M75.328 29.4031C75.328 31.5178 75.6304 33.1038 76.1594 34.1611C76.6885 35.2185 77.5953 35.8227 78.8801 35.8227C80.1649 35.8227 81.0719 35.294 81.601 34.1611C82.13 33.1038 82.3567 31.5178 82.3567 29.4031C82.3567 27.3639 82.13 25.7779 81.601 24.7205C81.0719 23.6632 80.1649 23.1346 78.8801 23.1346C77.5953 23.1346 76.764 23.6632 76.1594 24.7205C75.6304 25.7024 75.328 27.2884 75.328 29.4031ZM90.6703 29.4031C90.6703 33.3304 89.6121 36.4269 87.5715 38.6926C85.4554 40.8828 82.5835 42.0157 78.8046 42.0157C75.1769 42.0157 72.3805 40.8828 70.2643 38.6171C68.1481 36.3513 67.0901 33.2548 67.0901 29.4031C67.0901 25.4758 68.1481 22.3793 70.1887 20.1891C72.3048 17.9989 75.1769 16.9415 78.9558 16.9415C81.2987 16.9415 83.3392 17.4702 85.1531 18.452C86.967 19.4338 88.3273 20.9443 89.3099 22.8324C90.2168 24.645 90.6703 26.8352 90.6703 29.4031Z" fill="#060303"/>
<path d="M93.92 41.5626H102.082V29.101V17.3192H93.92V41.5626Z" fill="#060303"/>
<path d="M93.92 14.3736H102.082V8.93591H93.92V14.3736Z" fill="#060303"/>
<path d="M118.634 35.3695C119.767 35.3695 121.052 35.0674 122.564 34.5387V40.6562C121.43 41.1094 120.448 41.487 119.39 41.7135C118.407 41.9401 117.198 42.0157 115.913 42.0157C113.192 42.0157 111.227 41.3359 109.942 39.9765C108.733 38.617 108.128 36.5023 108.128 33.6324V23.6632H105.257V17.3191H108.128V11.1261L116.366 9.69116V17.3191H121.581V23.5876H116.366V33.0282C116.442 34.6142 117.198 35.3695 118.634 35.3695Z" fill="#060303"/>
<path d="M137.528 35.3695C138.662 35.3695 139.947 35.0674 141.458 34.5387V40.6562C140.325 41.1094 139.342 41.487 138.284 41.7135C137.302 41.9401 136.092 42.0157 134.808 42.0157C132.087 42.0157 130.122 41.3359 128.912 39.9765C127.703 38.617 127.099 36.5023 127.099 33.6324V23.6632H124.227V17.3191H127.099V11.0506L135.337 9.69116V17.3191H140.552V23.5876H135.337V33.0282C135.337 34.6142 136.092 35.3695 137.528 35.3695Z" fill="#060303"/>
<path d="M151.813 26.4575C151.888 25.0981 152.266 24.1918 152.946 23.5121C153.626 22.9079 154.382 22.6058 155.365 22.6058C156.423 22.6058 157.254 22.9835 157.859 23.6632C158.463 24.3429 158.841 25.3247 158.841 26.4575H151.813ZM163.376 19.7359C161.411 17.8478 158.69 16.866 155.138 16.866C151.359 16.866 148.487 17.9233 146.522 20.1135C144.482 22.3037 143.499 25.4758 143.499 29.5541C143.499 33.4814 144.557 36.5779 146.749 38.6925C148.941 40.8072 151.964 41.9401 155.969 41.9401C157.859 41.9401 159.522 41.789 160.882 41.5625C162.242 41.3359 163.527 40.8827 164.812 40.203L163.527 34.7653C162.62 35.1429 161.713 35.445 160.882 35.596C159.673 35.8981 158.388 36.0492 156.952 36.0492C155.365 36.0492 154.156 35.6716 153.249 34.9163C152.342 34.1611 151.888 33.1037 151.813 31.7443H166.399V28.0436C166.248 24.4184 165.265 21.624 163.376 19.7359Z" fill="#060303"/>
<path d="M38.1437 26.4575C38.2193 25.0981 38.5972 24.1918 39.2774 23.5121C39.9576 22.9079 40.7133 22.6058 41.6958 22.6058C42.7539 22.6058 43.5853 22.9835 44.1899 23.6632C44.7946 24.3429 45.0969 25.3247 45.1725 26.4575H38.1437ZM49.6315 19.7359C47.6665 17.8478 44.9458 16.866 41.3936 16.866C37.6147 16.866 34.7426 17.9233 32.7776 20.1135C30.8126 22.3037 29.7545 25.4758 29.7545 29.5541C29.7545 33.4814 30.8126 36.5779 33.0044 38.6925C35.1962 40.8072 38.2193 41.9401 42.1494 41.9401C44.0388 41.9401 45.7015 41.789 47.0619 41.5625C48.4223 41.3359 49.7071 40.8827 50.9919 40.203L49.7072 34.7653C48.8002 35.1429 47.8933 35.445 47.0619 35.596C45.8527 35.8981 44.5677 36.0492 43.1317 36.0492C41.5446 36.0492 40.3354 35.6716 39.4285 34.9163C38.5216 34.1611 38.0682 33.1037 37.9926 31.7443H52.579V28.0436C52.579 24.4184 51.5965 21.624 49.6315 19.7359Z" fill="#060303"/>
</svg>
